<svg xmlns="http://www.w3.org/2000/svg" aria-hidden="true" style="position:absolute;width:0;height:0;overflow:hidden">
  <defs>
    <symbol id="icon-spoon" viewBox="0 0 32 32">
      <path d="M15.373 13.835a5.895 5.895 0 0 1-1.345-3.751c0-4.941 5.921-9.877 11.842-9.877a5.923 5.923 0 0 1 5.921 5.922c0 5.922-4.934 11.845-9.881 11.845a5.887 5.887 0 0 1-3.75-1.345L3.579 31.213a1.977 1.977 0 0 1-2.794-2.795l14.587-14.584z"/>
    </symbol>
    <symbol id="icon-coin" viewBox="0 0 32 32">
      <path d="M16 2.667c-7.333 0-13.333 6-13.333 13.333s6 13.333 13.333 13.333 13.333-6 13.333-13.333S23.333 2.667 16 2.667zm0 24c-5.867 0-10.667-4.8-10.667-10.667S10.133 5.333 16 5.333 26.667 10.133 26.667 16 21.867 26.667 16 26.667z"/>
      <path d="M17.733 14.667h-3.467c-.667 0-1.2-.533-1.2-1.2s.533-1.2 1.2-1.2h4.933c.8 0 1.333-.533 1.333-1.333s-.533-1.333-1.333-1.333h-1.867v-1.2c0-.8-.533-1.333-1.333-1.333s-1.333.533-1.333 1.333v1.2h-.4c-2.133 0-3.867 1.733-3.867 3.867s1.733 3.867 3.867 3.867h3.333c.667 0 1.2.533 1.2 1.2s-.533 1.2-1.2 1.2h-4.933c-.8 0-1.333.533-1.333 1.333s.533 1.333 1.333 1.333h2v1.2c0 .8.533 1.333 1.333 1.333s1.333-.533 1.333-1.333v-1.2h.4c2.133 0 3.867-1.733 3.867-3.867s-1.733-3.867-3.867-3.867z"/>
    </symbol>
    <symbol id="icon-bar" viewBox="0 0 32 32">
      <path d="m13.822 2.413 7.527 7.536.08-.08a.856.856 0 0 1 1.184-.013l.873.873c.305.305.315.77.083 1.094l-.004.007-.143.192 6.16 6.16c.55.55.55 1.43 0 1.98l-9.43 9.43c-.55.55-1.43.55-1.98 0l-4.447-4.447a.853.853 0 0 1-.612.317.842.842 0 0 1-.644-.246l-2.6-2.6a.856.856 0 0 1-.013-1.184l.006-.007.077-.076-7.527-7.527c-.55-.55-.55-1.43 0-1.98l9.43-9.43c.55-.55 1.43-.55 1.98 0v.001zm6.582 8.48-1.756-1.755a.59.59 0 0 0-.85 0l-3.58 3.58a.621.621 0 0 0-.179.43.602.602 0 0 0 .179.43l1.749 1.749.61-.61-1.565-1.565 3.21-3.22 1.569 1.574.613-.613zm-5.076 5.072-1.754-1.754a.59.59 0 0 0-.85 0l-3.59 3.59c-.24.23-.24.61 0 .85l1.752 1.752.616-.616-1.57-1.564 3.22-3.21 1.564 1.563.612-.611zM8.822 8.193l3.58 3.58c.24.24.62.24.85-.01l3.58-3.58a.57.57 0 0 0 .18-.42h.01c0-.15-.06-.31-.18-.43l-3.58-3.58a.602.602 0 0 0-.86 0l-3.58 3.59c-.24.23-.24.61 0 .85zm-5.07 5.07 3.58 3.58c.24.24.62.24.85 0l3.58-3.58a.578.578 0 0 0 .18-.43h.01c0-.16-.06-.31-.18-.43l-3.58-3.58a.59.59 0 0 0-.85 0l-3.59 3.59c-.24.23-.24.61 0 .85zm6.933 8.754 2.362 2.363 9.636-13.04-.655-.655-11.343 11.332z"/>
      <path d="m13.822 2.413 7.527 7.536.08-.08a.856.856 0 0 1 1.184-.013l.873.873c.305.305.315.77.083 1.094l-.004.007-.143.192 6.16 6.16c.55.55.55 1.43 0 1.98l-9.43 9.43c-.55.55-1.43.55-1.98 0l-4.447-4.447a.853.853 0 0 1-.612.317.842.842 0 0 1-.644-.246l-2.6-2.6a.856.856 0 0 1-.013-1.184l.006-.007.077-.076-7.527-7.527c-.55-.55-.55-1.43 0-1.98l9.43-9.43c.55-.55 1.43-.55 1.98 0v.001zm6.582 8.48-1.756-1.755a.59.59 0 0 0-.85 0l-3.58 3.58a.621.621 0 0 0-.179.43.602.602 0 0 0 .179.43l1.749 1.749.61-.61-1.565-1.565 3.21-3.22 1.569 1.574.613-.613zm-5.076 5.072-1.754-1.754a.59.59 0 0 0-.85 0l-3.59 3.59c-.24.23-.24.61 0 .85l1.752 1.752.616-.616-1.57-1.564 3.22-3.21 1.564 1.563.612-.611zM8.822 8.193l3.58 3.58c.24.24.62.24.85-.01l3.58-3.58a.57.57 0 0 0 .18-.42h.01c0-.15-.06-.31-.18-.43l-3.58-3.58a.602.602 0 0 0-.86 0l-3.58 3.59c-.24.23-.24.61 0 .85zm-5.07 5.07 3.58 3.58c.24.24.62.24.85 0l3.58-3.58a.578.578 0 0 0 .18-.43h.01c0-.16-.06-.31-.18-.43l-3.58-3.58a.59.59 0 0 0-.85 0l-3.59 3.59c-.24.23-.24.61 0 .85zm6.933 8.754 2.362 2.363 9.636-13.04-.655-.655-11.343 11.332z"/>
    </symbol>
    <symbol id="icon-close" viewBox="0 0 32 32">
      <path stroke-linejoin="round" stroke-linecap="round" stroke-miterlimit="4" stroke-width="2.2857" d="M24 8l-16 16"></path>
      <path stroke-linejoin="round" stroke-linecap="round" stroke-miterlimit="4" stroke-width="2.2857" d="M8 8l16 16"></path>
    </symbol>
    <symbol id="icon-scroll" viewBox="0 0 32 32">
      <path fill="#fd9222" style="fill: var(--color1, #fd9222)" d="M16.947 17.867c-0.124 0.125-0.271 0.224-0.434 0.292s-0.337 0.103-0.513 0.103-0.35-0.035-0.513-0.103c-0.162-0.068-0.31-0.167-0.434-0.292l-6.107-6.12c-0.124-0.125-0.271-0.224-0.434-0.292s-0.337-0.103-0.513-0.103c-0.176 0-0.35 0.035-0.513 0.103s-0.31 0.167-0.434 0.292c-0.248 0.25-0.388 0.588-0.388 0.94s0.139 0.69 0.388 0.94l6.12 6.12c0.75 0.749 1.767 1.17 2.827 1.17s2.077-0.421 2.827-1.17l6.12-6.12c0.246-0.248 0.385-0.584 0.387-0.933 0.001-0.175-0.033-0.349-0.099-0.512s-0.164-0.31-0.288-0.435c-0.124-0.125-0.271-0.224-0.434-0.292s-0.337-0.103-0.513-0.103-0.35 0.035-0.513 0.103c-0.162 0.068-0.31 0.167-0.434 0.292l-6.107 6.12z"></path>
    </symbol>
    <symbol id="icon-twitter" viewBox="0 0 32 32">
      <path stroke-linejoin="round" stroke-linecap="round" stroke-miterlimit="4" stroke-width="2.6667" d="M30.667 4c-1.277 0.901-2.691 1.589-4.187 2.040-0.803-0.923-1.87-1.578-3.057-1.875s-2.437-0.222-3.58 0.214c-1.143 0.436-2.125 1.213-2.812 2.226s-1.047 2.212-1.031 3.435v1.333c-2.343 0.061-4.665-0.459-6.759-1.513s-4.561-3.563-5.908-5.481c0 0-4.667 12.954 7.333 18.287-2.746 1.864-6.017 2.799-9.333 2.667 12 6.667 26.667 0 26.667-15.333-0.001-0.371-0.037-0.742-0.107-1.107 1.361-1.342 2.321-3.036 2.773-4.893z"></path>
    </symbol>
    <symbol id="icon-instagram" viewBox="0 0 32 32">
      <path stroke-linejoin="round" stroke-linecap="round" stroke-miterlimit="4" stroke-width="2.6667" d="M22.667 2.667h-13.333c-3.682 0-6.667 2.985-6.667 6.667v13.333c0 3.682 2.985 6.667 6.667 6.667h13.333c3.682 0 6.667-2.985 6.667-6.667v-13.333c0-3.682-2.985-6.667-6.667-6.667z"></path>
      <path stroke-linejoin="round" stroke-linecap="round" stroke-miterlimit="4" stroke-width="2.6667" d="M21.333 15.16c0.165 1.11-0.025 2.243-0.542 3.239s-1.334 1.803-2.336 2.307c-1.002 0.504-2.137 0.68-3.245 0.502s-2.131-0.701-2.924-1.494c-0.793-0.793-1.316-1.816-1.494-2.924s-0.003-2.243 0.502-3.245c0.504-1.002 1.312-1.819 2.308-2.336s2.129-0.706 3.239-0.542c1.132 0.168 2.18 0.695 2.989 1.504s1.337 1.857 1.504 2.989z"></path>
      <path stroke-linejoin="round" stroke-linecap="round" stroke-miterlimit="4" stroke-width="2.6667" d="M23.333 8.667h0.013"></path>
    </symbol>
    <symbol id="icon-chocolate" viewBox="0 0 32 32">
      <path fill="#fcf1e0" style="fill: var(--color1, #fcf1e0)" d="M3.944 20.076l10.777-17.424 0.64-0.674 8.236 5.491 0.056 3.314 2.010 3.28-8.88 14.077-12.839-8.063z"></path>
      <path fill="none" stroke="#fd9222" style="stroke: var(--color2, #fd9222)" stroke-linejoin="round" stroke-linecap="round" stroke-miterlimit="4" stroke-width="2.6667" d="M21.635 23.88l-14.185-8.864M11.361 8.599l14.186 8.864M10.63 25.864l11.736-19.25M27.176 14.789c-3.040-1.899-4.234-3.384-2.278-6.592l-9.626-6.015-11.736 19.25 14.185 8.864 9.454-15.507z"></path>
    </symbol>
    <symbol id="icon-menu" viewBox="0 0 32 32">
      <path stroke-linecap="round" stroke-linejoin="round" stroke-width="2.2857" d="M4 16h24M4 8h24M4 24h24"/>
    </symbol>
    <symbol id="" viewBox="0 0 32 32">
      <path fill="none" stroke="#fafafa" stroke-linecap="round" stroke-linejoin="round" stroke-width="1.3333" d="M9.143 16h13.714m0 0-3.429-3.429M22.857 16l-3.429 3.429M16 30.857c8.205 0 14.857-6.652 14.857-14.857S24.205 1.143 16 1.143C7.795 1.143 1.143 7.795 1.143 16S7.795 30.857 16 30.857z" style="stroke:var(--color2, #fafafa)"/>
    </symbol>
    <symbol id="icon-arrow-right" viewBox="0 0 12 8">
      <path d="M0.857178 3.99996H11.1429M11.1429 3.99996L8.57146 1.42853M11.1429 3.99996L8.57146 6.57139" stroke="#FAFAFA" stroke-linecap="round" stroke-linejoin="round"/>
    </symbol>
     <symbol id="icon-facebook" viewBox="0 0 32 32">
      <path fill="#fff" d="M19.52 4.64h.96v3.6h-1.2c-.48 0-.96 0-1.2.24s-.24.48-.24 1.04v1.28h2.64v3.04h-2.64v13.2h-4.08V13.76H11.6v-3.04h2.16V9.68c0-1.76.24-3.04.72-3.6.72-1.04 2.16-1.52 4.32-1.52.24.08.48.08.72.08z" style="fill:var(--color5, #fff)"/>
    </symbol>
    <symbol id="icon-email" viewBox="0 0 32 32">
      <path d="M24 8h-16c-1.1 0-1.99 0.9-1.99 2l-0.010 12c0 1.1 0.9 2 2 2h16c1.1 0 2-0.9 2-2v-12c0-1.1-0.9-2-2-2zM23.6 12.25l-7.070 4.42c-0.32 0.2-0.74 0.2-1.060 0l-7.070-4.42c-0.25-0.16-0.4-0.43-0.4-0.72 0-0.67 0.73-1.070 1.3-0.72l6.7 4.19 6.7-4.19c0.57-0.35 1.3 0.050 1.3 0.72 0 0.29-0.15 0.56-0.4 0.72z"></path>   
    </symbol>
    <symbol id="icon-person" viewBox="0 0 32 32">
      <path d="M16 16c2.947 0 5.333-2.387 5.333-5.333s-2.387-5.333-5.333-5.333c-2.947 0-5.333 2.387-5.333 5.333s2.387 5.333 5.333 5.333zM16 18.667c-3.56 0-10.667 1.787-10.667 5.333v1.333c0 0.733 0.6 1.333 1.333 1.333h18.667c0.733 0 1.333-0.6 1.333-1.333v-1.333c0-3.547-7.107-5.333-10.667-5.333z"></path>
    </symbol>
    <symbol id="icon-phone" viewBox="0 0 32 32">
      <path d="M23.635 18.487l-2.451-0.28c-0.589-0.067-1.167 0.135-1.582 0.55l-1.775 1.775c-2.731-1.389-4.969-3.618-6.359-6.359l1.785-1.785c0.415-0.415 0.618-0.994 0.55-1.582l-0.28-2.432c-0.116-0.975-0.936-1.708-1.92-1.708h-1.669c-1.090 0-1.997 0.907-1.93 1.997 0.511 8.24 7.102 14.821 15.332 15.332 1.090 0.068 1.997-0.839 1.997-1.93v-1.669c0.010-0.975-0.724-1.795-1.698-1.911z"></path>
    </symbol>
  </defs>
</svg>
