<svg aria-hidden="true" style="position:absolute;width:0;height:0;overflow:hidden">
  <defs>
    <symbol id="icon-chocolate" viewBox="0 0 32 32">
      <path fill="#e9e9e9" d="M.727 0h30.545v32H.727V0z" style="fill:var(--color1, #e9e9e9)"/>
      <path fill="#fafafa" d="M-243.636-33.455h545.455v13117.091h-545.455V-33.455z" style="fill:var(--color2, #fafafa)"/>
      <path fill="#fcf1e0" d="M4.492 19.89 14.779 3.258l.611-.643 7.861 5.242.054 3.163 1.919 3.13-8.476 13.437-12.256-7.696z" style="fill:var(--color3, #fcf1e0)"/>
      <path fill="none" stroke="#fd9222" stroke-linecap="round" stroke-linejoin="round" stroke-width="2.6182" d="M21.379 23.521 7.838 15.06m3.734-6.125 13.541 8.461m-14.239 8.02L22.076 7.041m4.593 7.803c-2.902-1.813-4.041-3.23-2.174-6.293l-9.188-5.742L4.105 21.184l13.541 8.461 9.024-14.802z" style="stroke:var(--color4, #fd9222)"/>
    </symbol>
    <symbol id="icon-Coin" viewBox="0 0 32 32">
      <path fill="#fd9222" d="M16 2.667c-7.333 0-13.333 6-13.333 13.333s6 13.333 13.333 13.333 13.333-6 13.333-13.333S23.333 2.667 16 2.667zm0 24c-5.867 0-10.667-4.8-10.667-10.667S10.133 5.333 16 5.333 26.667 10.133 26.667 16 21.867 26.667 16 26.667z" style="fill:var(--color4, #fd9222)"/>
      <path fill="#fd9222" d="M17.733 14.667h-3.467c-.667 0-1.2-.533-1.2-1.2s.533-1.2 1.2-1.2h4.933c.8 0 1.333-.533 1.333-1.333s-.533-1.333-1.333-1.333h-1.867v-1.2c0-.8-.533-1.333-1.333-1.333s-1.333.533-1.333 1.333v1.2h-.4c-2.133 0-3.867 1.733-3.867 3.867s1.733 3.867 3.867 3.867h3.333c.667 0 1.2.533 1.2 1.2s-.533 1.2-1.2 1.2h-4.933c-.8 0-1.333.533-1.333 1.333s.533 1.333 1.333 1.333h2v1.2c0 .8.533 1.333 1.333 1.333s1.333-.533 1.333-1.333v-1.2h.4c2.133 0 3.867-1.733 3.867-3.867s-1.733-3.867-3.867-3.867z" style="fill:var(--color4, #fd9222)"/>
    </symbol>
    <symbol id="icon-facebook" viewBox="0 0 32 32">
      <path fill="#fff" d="M19.52 4.64h.96v3.6h-1.2c-.48 0-.96 0-1.2.24s-.24.48-.24 1.04v1.28h2.64v3.04h-2.64v13.2h-4.08V13.76H11.6v-3.04h2.16V9.68c0-1.76.24-3.04.72-3.6.72-1.04 2.16-1.52 4.32-1.52.24.08.48.08.72.08z" style="fill:var(--color5, #fff)"/>
    </symbol>
    <symbol id="icon-left" viewBox="0 0 32 32">
      <path fill="#fd9222" d="M16.946 17.867c-.124.125-.271.224-.434.292s-.337.103-.513.103-.35-.035-.513-.103-.31-.167-.434-.292l-6.107-6.12c-.124-.125-.271-.224-.434-.292s-.337-.103-.513-.103-.35.035-.513.103-.31.167-.434.292c-.248.25-.388.588-.388.94s.139.69.388.94l6.12 6.12c.75.749 1.767 1.17 2.827 1.17s2.077-.421 2.827-1.17l6.12-6.12c.246-.248.385-.584.387-.933.001-.175-.033-.349-.099-.512s-.164-.31-.288-.435c-.124-.125-.272-.224-.434-.292s-.337-.103-.513-.103-.35.035-.513.103-.31.167-.434.292l-6.107 6.12z" style="fill:var(--color4, #fd9222)"/>
    </symbol>
    <symbol id="icon-chocolate-bar" viewBox="0 0 32 32">
      <path fill="#111" d="m13.822 2.413 7.527 7.536.08-.08c.158-.154.369-.242.589-.244s.434.08.595.231l.873.873c.305.305.315.77.083 1.094l-.004.007-.143.192 6.16 6.16c.55.55.55 1.43 0 1.98l-9.43 9.43c-.55.55-1.43.55-1.98 0l-4.447-4.447c-.074.093-.167.169-.272.224s-.221.086-.34.093c-.119.007-.237-.012-.348-.054s-.212-.108-.296-.192l-2.6-2.6c-.154-.158-.242-.369-.244-.589s.08-.434.231-.595l.006-.007.077-.076-7.527-7.527c-.55-.55-.55-1.43 0-1.98l9.43-9.43c.55-.55 1.43-.55 1.98 0v.001zm6.582 8.48-1.756-1.755c-.055-.057-.121-.102-.194-.133s-.151-.047-.231-.047c-.079 0-.158.016-.231.047s-.139.076-.194.133l-3.58 3.58c-.057.056-.102.123-.132.197s-.047.153-.047.233.016.159.047.233c.031.074.076.141.132.197l1.749 1.749.61-.61-1.565-1.565 3.21-3.22 1.569 1.574.613-.613zm-5.076 5.072-1.754-1.754c-.055-.057-.121-.102-.194-.133s-.152-.047-.231-.047c-.079 0-.158.016-.231.047s-.139.076-.194.133l-3.59 3.59c-.24.23-.24.61 0 .85l1.752 1.752.616-.616-1.57-1.564 3.22-3.21 1.564 1.563.612-.611zM8.822 8.193l3.58 3.58c.24.24.62.24.85-.01l3.58-3.58c.057-.054.102-.119.133-.192s.047-.15.047-.228h.01c0-.15-.06-.31-.18-.43l-3.58-3.58c-.056-.057-.123-.102-.197-.133s-.153-.047-.233-.047c-.08 0-.159.016-.233.047s-.141.076-.197.133l-3.58 3.59c-.24.23-.24.61 0 .85zm-5.07 5.07 3.58 3.58c.24.24.62.24.85 0l3.58-3.58c.058-.055.104-.122.135-.196s.046-.154.045-.234h.01c0-.16-.06-.31-.18-.43l-3.58-3.58c-.055-.057-.121-.102-.194-.133s-.151-.047-.231-.047c-.079 0-.158.016-.231.047s-.139.076-.194.133l-3.59 3.59c-.24.23-.24.61 0 .85zm6.933 8.754 2.362 2.363 9.636-13.04-.655-.655-11.343 11.332z" style="fill:var(--color6, #111)"/>
      <path fill="#fd9222" d="m13.822 2.413 7.527 7.536.08-.08c.158-.154.369-.242.589-.244s.434.08.595.231l.873.873c.305.305.315.77.083 1.094l-.004.007-.143.192 6.16 6.16c.55.55.55 1.43 0 1.98l-9.43 9.43c-.55.55-1.43.55-1.98 0l-4.447-4.447c-.074.093-.167.169-.272.224s-.221.086-.34.093c-.119.007-.237-.012-.348-.054s-.212-.108-.296-.192l-2.6-2.6c-.154-.158-.242-.369-.244-.589s.08-.434.231-.595l.006-.007.077-.076-7.527-7.527c-.55-.55-.55-1.43 0-1.98l9.43-9.43c.55-.55 1.43-.55 1.98 0v.001zm6.582 8.48-1.756-1.755c-.055-.057-.121-.102-.194-.133s-.151-.047-.231-.047c-.079 0-.158.016-.231.047s-.139.076-.194.133l-3.58 3.58c-.057.056-.102.123-.132.197s-.047.153-.047.233.016.159.047.233c.031.074.076.141.132.197l1.749 1.749.61-.61-1.565-1.565 3.21-3.22 1.569 1.574.613-.613zm-5.076 5.072-1.754-1.754c-.055-.057-.121-.102-.194-.133s-.152-.047-.231-.047c-.079 0-.158.016-.231.047s-.139.076-.194.133l-3.59 3.59c-.24.23-.24.61 0 .85l1.752 1.752.616-.616-1.57-1.564 3.22-3.21 1.564 1.563.612-.611zM8.822 8.193l3.58 3.58c.24.24.62.24.85-.01l3.58-3.58c.057-.054.102-.119.133-.192s.047-.15.047-.228h.01c0-.15-.06-.31-.18-.43l-3.58-3.58c-.056-.057-.123-.102-.197-.133s-.153-.047-.233-.047c-.08 0-.159.016-.233.047s-.141.076-.197.133l-3.58 3.59c-.24.23-.24.61 0 .85zm-5.07 5.07 3.58 3.58c.24.24.62.24.85 0l3.58-3.58c.058-.055.104-.122.135-.196s.046-.154.045-.234h.01c0-.16-.06-.31-.18-.43l-3.58-3.58c-.055-.057-.121-.102-.194-.133s-.151-.047-.231-.047c-.079 0-.158.016-.231.047s-.139.076-.194.133l-3.59 3.59c-.24.23-.24.61 0 .85zm6.933 8.754 2.362 2.363 9.636-13.04-.655-.655-11.343 11.332z" style="fill:var(--color4, #fd9222)"/>
    </symbol>
    <symbol id="icon-instagram" viewBox="0 0 32 32">
      <path fill="#fff" d="M28.717 10.756c-.016-1.074-.215-2.14-.596-3.145-.667-1.716-2.024-3.073-3.743-3.737-.994-.373-2.044-.573-3.108-.596-1.367-.061-1.801-.078-5.273-.078s-3.916 0-5.274.078c-1.062.023-2.112.223-3.106.596-1.719.664-3.078 2.021-3.743 3.737-.374.992-.576 2.041-.596 3.101-.061 1.367-.08 1.8-.08 5.265s0 3.909.08 5.265c.021 1.062.222 2.109.596 3.104.667 1.714 2.024 3.071 3.744 3.735.989.386 2.04.605 3.106.639 1.369.061 1.803.079 5.274.079s3.917 0 5.274-.079c1.062-.021 2.112-.221 3.108-.595 1.719-.666 3.076-2.022 3.743-3.737.374-.993.574-2.041.596-3.104.061-1.365.08-1.798.08-5.265-.003-3.466-.003-3.906-.082-5.264zM15.99 22.531c-3.631 0-6.572-2.936-6.572-6.561s2.941-6.561 6.572-6.561c3.628 0 6.572 2.936 6.572 6.561s-2.944 6.561-6.572 6.561zm6.833-11.835c-.849 0-1.532-.684-1.532-1.53s.684-1.53 1.532-1.53c.846 0 1.531.684 1.531 1.53s-.685 1.53-1.531 1.53z" style="fill:var(--color5, #fff)"/>
      <path fill="#fff" d="M15.992 19.976c2.211 0 4.004-1.793 4.004-4.004s-1.793-4.004-4.004-4.004c-2.211 0-4.004 1.793-4.004 4.004s1.793 4.004 4.004 4.004z" style="fill:var(--color5, #fff)"/>
    </symbol>
    <symbol id="icon-spoon" viewBox="0 0 32 32">
      <path fill="#fd9222" d="M15.451 14.106c-.783-.95-1.177-2.116-1.177-3.282 0-4.324 5.181-8.642 10.362-8.642 2.86 0 5.181 2.321 5.181 5.182 0 5.182-4.317 10.364-8.646 10.364-1.166 0-2.332-.394-3.281-1.177L5.132 29.312c-.675.675-1.77.675-2.445 0s-.675-1.771 0-2.445l12.764-12.761z" style="fill:var(--color4, #fd9222)"/>
    </symbol>
    <symbol id="icon-menu" viewBox="0 0 32 32">
      <path stroke-linecap="round" stroke-linejoin="round" stroke-width="2.2857" d="M4 16h24M4 8h24M4 24h24"/>
    </symbol>
    <symbol id="icon-play" viewBox="0 0 32 32">
      <path fill="#f5f4f4" d="M11.886 23.771V10.057l12.8 6.857-12.8 6.857z" style="fill:var(--color7, #f5f4f4)"/>
      <path fill="none" stroke="#fff" stroke-width=".9143" d="M31.543 16c0 8.584-6.959 15.543-15.543 15.543S.457 24.584.457 16 7.416.457 16 .457 31.543 7.416 31.543 16z" style="stroke:var(--color5, #fff)"/>
    </symbol>
    <symbol id="icon-streamline_interface-arrows-right-circle-1-arrow-keyboard-circle-button-right" viewBox="0 0 32 32">
      <path fill="none" stroke="#fafafa" stroke-linecap="round" stroke-linejoin="round" stroke-width="1.3333" d="M9.143 16h13.714m0 0-3.429-3.429M22.857 16l-3.429 3.429M16 30.857c8.205 0 14.857-6.652 14.857-14.857S24.205 1.143 16 1.143C7.795 1.143 1.143 7.795 1.143 16S7.795 30.857 16 30.857z" style="stroke:var(--color2, #fafafa)"/>
    </symbol>
    <symbol id="icon-twitter-1" viewBox="0 0 32 32">
      <path fill="#fff" d="M29.333 7.898c-.992.435-2.048.723-3.15.863 1.133-.677 1.998-1.74 2.405-3.022-1.057.63-2.223 1.075-3.467 1.323-1.003-1.068-2.433-1.73-3.993-1.73-3.027 0-5.463 2.457-5.463 5.468 0 .433.037.85.127 1.247-4.545-.222-8.567-2.4-11.268-5.718-.472.818-.748 1.755-.748 2.763 0 1.893.975 3.572 2.428 4.543-.878-.017-1.74-.272-2.47-.673v.06c0 2.657 1.895 4.863 4.38 5.372-.445.122-.93.18-1.433.18-.35 0-.703-.02-1.035-.093.708 2.165 2.718 3.757 5.108 3.808-1.86 1.455-4.222 2.332-6.778 2.332-.448 0-.878-.02-1.308-.075 2.422 1.562 5.292 2.453 8.387 2.453 10.06 0 15.56-8.333 15.56-15.557 0-.242-.008-.475-.02-.707 1.085-.77 1.997-1.732 2.74-2.838z" style="fill:var(--color5, #fff)"/>
    </symbol>
    <symbol id="icon-vector" viewBox="0 0 32 32">
      <path fill="none" stroke="#fd9222" stroke-linecap="round" stroke-linejoin="round" stroke-width="2.7429" d="M22.397 23.118 8.211 14.254m3.912-6.417 14.185 8.864m-14.916 8.401 11.736-19.25m4.811 8.175c-3.04-1.899-4.234-3.384-2.278-6.592L16.035 1.42 4.299 20.67l14.185 8.864 9.454-15.507z" style="stroke:var(--color4, #fd9222)"/>
    </symbol>
    <symbol id="icon-Vector-14" viewBox="0 0 32 32">
      <path fill="#fcf1e0" d="M3.712 22.533 16.285 2.205l.747-.786 9.608 6.406.066 3.866 2.345 3.826-10.36 16.423-14.979-9.406z" style="fill:var(--color3, #fcf1e0)"/>
    </symbol>
  </defs>
</svg>
