<svg width="0" height="0" class="hidden">
  <symbol fill="none" xmlns="http://www.w3.org/2000/svg" viewBox="0 0 21 22" id="chocolate">
    <rect width="21" height="22" fill="#E9E9E9"></rect>
    <g clip-path="url(#clip0_609_1205)">
      <rect width="375" height="9018" transform="translate(-168 -23)" fill="#FAFAFA"></rect>
      <g clip-path="url(#clip1_609_1205)">
        <path d="M2.58812 13.6747L9.66043 2.24L10.0804 1.79762L15.4851 5.40119L15.5221 7.57579L16.8412 9.72801L11.0139 18.9658L2.58812 13.6747Z" fill="#FCF1E0"></path>
        <path d="M14.1979 16.171L4.88863 10.3539M7.45579 6.14288L16.765 11.96M6.9761 17.4734L14.6776 4.84042M17.8347 10.2054C15.8399 8.95885 15.0564 7.98468 16.3399 5.87918L10.0229 1.93188L2.32147 14.5649L11.6307 20.382L17.8347 10.2054Z" stroke="#FD9222" stroke-width="1.8" stroke-linecap="round" stroke-linejoin="round"></path>
      </g>
    </g>
    <defs>
      <clipPath id="clip0_609_1205">
        <rect width="375" height="9018" fill="white" transform="translate(-168 -23)"></rect>
      </clipPath>
      <clipPath id="clip1_609_1205">
        <rect width="21" height="21" fill="white" transform="translate(0 0.5)"></rect>
      </clipPath>
    </defs>
  </symbol>
  <symbol fill="none" xmlns="http://www.w3.org/2000/svg" viewBox="0 0 32 32" id="Coin">
    <path d="M15.9998 2.66663C8.6665 2.66663 2.6665 8.66663 2.6665 16C2.6665 23.3333 8.6665 29.3333 15.9998 29.3333C23.3332 29.3333 29.3332 23.3333 29.3332 16C29.3332 8.66663 23.3332 2.66663 15.9998 2.66663ZM15.9998 26.6666C10.1332 26.6666 5.33317 21.8666 5.33317 16C5.33317 10.1333 10.1332 5.33329 15.9998 5.33329C21.8665 5.33329 26.6665 10.1333 26.6665 16C26.6665 21.8666 21.8665 26.6666 15.9998 26.6666Z" fill="#FD9222"></path>
    <path d="M17.7332 14.6667H14.2666C13.5999 14.6667 13.0666 14.1333 13.0666 13.4667C13.0666 12.8 13.5999 12.2667 14.2666 12.2667H19.1999C19.9999 12.2667 20.5332 11.7333 20.5332 10.9333C20.5332 10.1333 19.9999 9.59998 19.1999 9.59998H17.3332V8.39998C17.3332 7.59998 16.7999 7.06665 15.9999 7.06665C15.1999 7.06665 14.6666 7.59998 14.6666 8.39998V9.59998H14.2666C12.1332 9.59998 10.3999 11.3333 10.3999 13.4667C10.3999 15.6 12.1332 17.3333 14.2666 17.3333H17.5999C18.2666 17.3333 18.7999 17.8666 18.7999 18.5333C18.7999 19.2 18.2666 19.7333 17.5999 19.7333H12.6666C11.8666 19.7333 11.3332 20.2667 11.3332 21.0667C11.3332 21.8667 11.8666 22.4 12.6666 22.4H14.6666V23.6C14.6666 24.4 15.1999 24.9333 15.9999 24.9333C16.7999 24.9333 17.3332 24.4 17.3332 23.6V22.4H17.7332C19.8666 22.4 21.5999 20.6667 21.5999 18.5333C21.5999 16.4 19.8666 14.6667 17.7332 14.6667Z" fill="#FD9222"></path>
  </symbol>
  <symbol fill="none" xmlns="http://www.w3.org/2000/svg" viewBox="0 0 24 24" id="facebook">
    <path d="M14.6402 3.47992C14.8202 3.47992 15.0002 3.47992 15.3602 3.47992V6.17992C15.1802 6.17992 14.8202 6.17992 14.4602 6.17992C14.1002 6.17992 13.7402 6.17992 13.5602 6.35992C13.3802 6.53992 13.3802 6.71992 13.3802 7.13992C13.3802 7.49992 13.3802 7.73992 13.3802 8.09992H15.3602V10.3799H13.3802V20.2799H10.3202V10.3199H8.7002V8.03992H10.3202V7.25992C10.3202 5.93992 10.5002 4.97992 10.8602 4.55992C11.4002 3.77992 12.4802 3.41992 14.1002 3.41992C14.2802 3.47992 14.4602 3.47992 14.6402 3.47992Z" fill="white"></path>
  </symbol>
  <symbol fill="none" xmlns="http://www.w3.org/2000/svg" viewBox="0 0 16 16" id="fi-left">
    <path d="M8.47305 8.93334C8.41108 8.99583 8.33734 9.04543 8.2561 9.07927C8.17486 9.11312 8.08773 9.13054 7.99972 9.13054C7.91171 9.13054 7.82457 9.11312 7.74333 9.07927C7.6621 9.04543 7.58836 8.99583 7.52639 8.93334L4.47305 5.87334C4.41107 5.81086 4.33734 5.76126 4.2561 5.72742C4.17486 5.69357 4.08772 5.67615 3.99972 5.67615C3.91171 5.67615 3.82457 5.69357 3.74333 5.72742C3.66209 5.76126 3.58836 5.81086 3.52638 5.87334C3.40221 5.99825 3.33252 6.16722 3.33252 6.34334C3.33252 6.51947 3.40221 6.68844 3.52638 6.81334L6.58638 9.87335C6.96139 10.2479 7.46972 10.4583 7.99972 10.4583C8.52972 10.4583 9.03805 10.2479 9.41305 9.87335L12.4731 6.81334C12.5962 6.68917 12.6657 6.52157 12.6664 6.34668C12.6669 6.25894 12.6501 6.17196 12.6169 6.09074C12.5837 6.00951 12.5348 5.93564 12.4731 5.87334C12.4111 5.81086 12.3373 5.76126 12.2561 5.72742C12.1749 5.69357 12.0877 5.67615 11.9997 5.67615C11.9117 5.67615 11.8246 5.69357 11.7433 5.72742C11.6621 5.76126 11.5884 5.81086 11.5264 5.87334L8.47305 8.93334Z" fill="#FD9222"></path>
  </symbol>
  <symbol fill="none" xmlns="http://www.w3.org/2000/svg" viewBox="0 0 32 32" id="chocolate-bar">
    <path d="M13.822 2.41301L21.349 9.94901L21.429 9.86901C21.5867 9.71469 21.7978 9.6272 22.0184 9.62477C22.239 9.62235 22.452 9.70519 22.613 9.85601L22.619 9.86201L23.486 10.729C23.791 11.034 23.801 11.499 23.569 11.823L23.565 11.83L23.422 12.022L29.582 18.182C30.132 18.732 30.132 19.612 29.582 20.162L20.152 29.592C19.602 30.142 18.722 30.142 18.172 29.592L13.725 25.145C13.6512 25.2381 13.5584 25.3145 13.4529 25.3692C13.3474 25.4239 13.2316 25.4556 13.1129 25.4623C12.9943 25.469 12.8756 25.4505 12.7646 25.4081C12.6536 25.3656 12.5529 25.3002 12.469 25.216L9.86901 22.616C9.71469 22.4584 9.6272 22.2472 9.62477 22.0266C9.62235 21.806 9.70519 21.593 9.85601 21.432L9.86201 21.425L9.93901 21.349L2.41201 13.822C1.86201 13.272 1.86201 12.392 2.41201 11.842L11.842 2.41201C12.392 1.86201 13.272 1.86201 13.822 2.41201V2.41301ZM20.404 10.893L18.648 9.13801C18.5928 9.0811 18.5268 9.03585 18.4538 9.00495C18.3808 8.97405 18.3023 8.95813 18.223 8.95813C18.1437 8.95813 18.0653 8.97405 17.9923 9.00495C17.9193 9.03585 17.8532 9.0811 17.798 9.13801L14.218 12.718C14.1613 12.7743 14.1163 12.8413 14.0856 12.9151C14.0548 12.9889 14.039 13.0681 14.039 13.148C14.039 13.2279 14.0548 13.3071 14.0856 13.3809C14.1163 13.4547 14.1613 13.5217 14.218 13.578L15.967 15.327L16.577 14.717L15.012 13.152L18.222 9.93201L19.791 11.506L20.404 10.893ZM15.328 15.965L13.574 14.211C13.5188 14.1541 13.4528 14.1088 13.3798 14.0779C13.3068 14.047 13.2283 14.0311 13.149 14.0311C13.0697 14.0311 12.9913 14.047 12.9183 14.0779C12.8453 14.1088 12.7792 14.1541 12.724 14.211L9.14401 17.791L9.13901 17.796L9.13401 17.801C8.89401 18.031 8.89401 18.411 9.13401 18.651L10.886 20.403L11.502 19.787L9.93201 18.223L13.152 15.013L14.716 16.576L15.328 15.965ZM8.82201 8.19301L12.402 11.773C12.642 12.013 13.022 12.013 13.252 11.763L16.832 8.18301C16.8889 8.12884 16.9342 8.06368 16.9651 7.99148C16.9961 7.91929 17.012 7.84156 17.012 7.76301H17.022C17.022 7.61301 16.962 7.45301 16.842 7.33301L13.262 3.75301C13.2058 3.69617 13.1388 3.65105 13.065 3.62025C12.9912 3.58946 12.912 3.5736 12.832 3.5736C12.752 3.5736 12.6729 3.58946 12.599 3.62025C12.5252 3.65105 12.4583 3.69617 12.402 3.75301L8.82201 7.34301C8.58201 7.57301 8.58201 7.95301 8.82201 8.19301ZM3.75201 13.263L7.33201 16.843C7.57201 17.083 7.95201 17.083 8.18201 16.843L11.762 13.263C11.8201 13.2077 11.8661 13.1409 11.8971 13.0669C11.9281 12.9929 11.9434 12.9132 11.942 12.833H11.952C11.952 12.673 11.892 12.523 11.772 12.403L8.19201 8.82301C8.13683 8.7661 8.07077 8.72085 7.99776 8.68995C7.92476 8.65905 7.84629 8.64313 7.76701 8.64313C7.68774 8.64313 7.60927 8.65905 7.53626 8.68995C7.46326 8.72085 7.3972 8.7661 7.34201 8.82301L3.75201 12.413C3.51201 12.643 3.51201 13.023 3.75201 13.263ZM10.685 22.017L13.047 24.38L22.683 11.34L22.028 10.685L10.685 22.017Z" fill="#111111"></path>
    <path d="M13.822 2.41301L21.349 9.94901L21.429 9.86901C21.5867 9.71469 21.7978 9.6272 22.0184 9.62477C22.239 9.62235 22.452 9.70519 22.613 9.85601L22.619 9.86201L23.486 10.729C23.791 11.034 23.801 11.499 23.569 11.823L23.565 11.83L23.422 12.022L29.582 18.182C30.132 18.732 30.132 19.612 29.582 20.162L20.152 29.592C19.602 30.142 18.722 30.142 18.172 29.592L13.725 25.145C13.6512 25.2381 13.5584 25.3145 13.4529 25.3692C13.3474 25.4239 13.2316 25.4556 13.1129 25.4623C12.9943 25.469 12.8756 25.4505 12.7646 25.4081C12.6536 25.3656 12.5529 25.3002 12.469 25.216L9.86901 22.616C9.71469 22.4584 9.6272 22.2472 9.62477 22.0266C9.62235 21.806 9.70519 21.593 9.85601 21.432L9.86201 21.425L9.93901 21.349L2.41201 13.822C1.86201 13.272 1.86201 12.392 2.41201 11.842L11.842 2.41201C12.392 1.86201 13.272 1.86201 13.822 2.41201V2.41301ZM20.404 10.893L18.648 9.13801C18.5928 9.0811 18.5268 9.03585 18.4538 9.00495C18.3808 8.97405 18.3023 8.95813 18.223 8.95813C18.1437 8.95813 18.0653 8.97405 17.9923 9.00495C17.9193 9.03585 17.8532 9.0811 17.798 9.13801L14.218 12.718C14.1613 12.7743 14.1163 12.8413 14.0856 12.9151C14.0548 12.9889 14.039 13.0681 14.039 13.148C14.039 13.2279 14.0548 13.3071 14.0856 13.3809C14.1163 13.4547 14.1613 13.5217 14.218 13.578L15.967 15.327L16.577 14.717L15.012 13.152L18.222 9.93201L19.791 11.506L20.404 10.893ZM15.328 15.965L13.574 14.211C13.5188 14.1541 13.4528 14.1088 13.3798 14.0779C13.3068 14.047 13.2283 14.0311 13.149 14.0311C13.0697 14.0311 12.9913 14.047 12.9183 14.0779C12.8453 14.1088 12.7792 14.1541 12.724 14.211L9.14401 17.791L9.13901 17.796L9.13401 17.801C8.89401 18.031 8.89401 18.411 9.13401 18.651L10.886 20.403L11.502 19.787L9.93201 18.223L13.152 15.013L14.716 16.576L15.328 15.965ZM8.82201 8.19301L12.402 11.773C12.642 12.013 13.022 12.013 13.252 11.763L16.832 8.18301C16.8889 8.12884 16.9342 8.06368 16.9651 7.99148C16.9961 7.91929 17.012 7.84156 17.012 7.76301H17.022C17.022 7.61301 16.962 7.45301 16.842 7.33301L13.262 3.75301C13.2058 3.69617 13.1388 3.65105 13.065 3.62025C12.9912 3.58946 12.912 3.5736 12.832 3.5736C12.752 3.5736 12.6729 3.58946 12.599 3.62025C12.5252 3.65105 12.4583 3.69617 12.402 3.75301L8.82201 7.34301C8.58201 7.57301 8.58201 7.95301 8.82201 8.19301ZM3.75201 13.263L7.33201 16.843C7.57201 17.083 7.95201 17.083 8.18201 16.843L11.762 13.263C11.8201 13.2077 11.8661 13.1409 11.8971 13.0669C11.9281 12.9929 11.9434 12.9132 11.942 12.833H11.952C11.952 12.673 11.892 12.523 11.772 12.403L8.19201 8.82301C8.13683 8.7661 8.07077 8.72085 7.99776 8.68995C7.92476 8.65905 7.84629 8.64313 7.76701 8.64313C7.68774 8.64313 7.60927 8.65905 7.53626 8.68995C7.46326 8.72085 7.3972 8.7661 7.34201 8.82301L3.75201 12.413C3.51201 12.643 3.51201 13.023 3.75201 13.263ZM10.685 22.017L13.047 24.38L22.683 11.34L22.028 10.685L10.685 22.017Z" fill="#FD9222"></path>
  </symbol>
  <symbol fill="none" xmlns="http://www.w3.org/2000/svg" viewBox="0 0 24 24" id="instagram">
    <path d="M21.5381 8.06687C21.5263 7.26111 21.3771 6.46173 21.0913 5.70812C20.5913 4.42124 19.5731 3.40365 18.284 2.9055C17.5388 2.62556 16.7509 2.47548 15.9533 2.45845C14.9277 2.41268 14.6025 2.3999 11.9988 2.3999C9.39519 2.3999 9.06148 2.3999 8.04326 2.45845C7.24682 2.47548 6.4589 2.62556 5.71363 2.9055C4.4246 3.40365 3.40532 4.42124 2.90634 5.70812C2.62594 6.45215 2.47454 7.23875 2.45961 8.03388C2.41376 9.05891 2.3999 9.38356 2.3999 11.9829C2.3999 14.5822 2.3999 14.9143 2.45961 15.9319C2.4756 16.7281 2.62594 17.5136 2.90634 18.2598C3.40639 19.5456 4.4246 20.5632 5.7147 21.0613C6.45677 21.3508 7.24468 21.5148 8.04433 21.5403C9.07107 21.5861 9.39626 21.5999 11.9999 21.5999C14.6035 21.5999 14.9373 21.5999 15.9555 21.5403C16.7519 21.5243 17.5398 21.3742 18.2862 21.0943C19.5752 20.5951 20.5934 19.5775 21.0935 18.2917C21.3739 17.5466 21.5242 16.7611 21.5402 15.9638C21.586 14.9398 21.5999 14.6152 21.5999 12.0148C21.5978 9.41549 21.5978 9.08552 21.5381 8.06687ZM11.9924 16.8984C9.26938 16.8984 7.06343 14.6961 7.06343 11.9776C7.06343 9.25902 9.26938 7.05674 11.9924 7.05674C14.7134 7.05674 16.9214 9.25902 16.9214 11.9776C16.9214 14.6961 14.7134 16.8984 11.9924 16.8984ZM17.1176 8.02217C16.4811 8.02217 15.9683 7.50912 15.9683 6.87472C15.9683 6.24033 16.4811 5.72728 17.1176 5.72728C17.752 5.72728 18.2659 6.24033 18.2659 6.87472C18.2659 7.50912 17.752 8.02217 17.1176 8.02217Z" fill="white"></path>
    <path d="M11.9942 14.9821C13.6527 14.9821 14.9972 13.6376 14.9972 11.9791C14.9972 10.3206 13.6527 8.97607 11.9942 8.97607C10.3357 8.97607 8.99121 10.3206 8.99121 11.9791C8.99121 13.6376 10.3357 14.9821 11.9942 14.9821Z" fill="white"></path>
  </symbol>
  <symbol fill="none" xmlns="http://www.w3.org/2000/svg" viewBox="0 0 32 32" id="spoon">
    <path d="M15.4514 14.1059C14.6688 13.1559 14.2748 11.9899 14.2748 10.8239C14.2748 6.50016 19.4559 2.18176 24.6369 2.18176C27.4973 2.18176 29.818 4.5029 29.818 7.36383C29.818 12.5459 25.5005 17.728 21.1721 17.728C20.0064 17.728 18.8406 17.3339 17.8908 16.5512L5.13242 29.3121C4.4578 29.9868 3.36222 29.9868 2.6876 29.3121C2.01299 28.6373 2.01299 27.5415 2.6876 26.8668L15.4514 14.1059Z" fill="#FD9222"></path>
  </symbol>
  <symbol fill="none" xmlns="http://www.w3.org/2000/svg" viewBox="0 0 28 28" id="menu-icon">
    <path d="M3.5 14H24.5M3.5 7H24.5M3.5 21H24.5" stroke="#111111" stroke-width="2" stroke-linecap="round" stroke-linejoin="round"></path>
  </symbol>
  <symbol fill="none" xmlns="http://www.w3.org/2000/svg" viewBox="0 0 35 35" id="play">
    <path d="M13 26V11L27 18.5L13 26Z" fill="#F5F4F4"></path>
    <circle cx="17.5" cy="17.5" r="17" stroke="white"></circle>
  </symbol>
  <symbol fill="none" xmlns="http://www.w3.org/2000/svg" viewBox="0 0 24 24" id="streamline_interface-arrows-right-circle-1-arrow-keyboard-circle-button-right">
    <g clip-path="url(#clip0_609_2037)">
      <path d="M6.85693 12H17.1426M17.1426 12L14.5712 9.42853M17.1426 12L14.5712 14.5714" stroke="#FAFAFA" stroke-linecap="round" stroke-linejoin="round"></path>
      <path d="M11.9998 23.1428C18.1538 23.1428 23.1427 18.154 23.1427 12C23.1427 5.84594 18.1538 0.857117 11.9998 0.857117C5.84576 0.857117 0.856934 5.84594 0.856934 12C0.856934 18.154 5.84576 23.1428 11.9998 23.1428Z" stroke="#FAFAFA" stroke-linecap="round" stroke-linejoin="round"></path>
    </g>
    <defs>
      <clipPath id="clip0_609_2037">
        <rect width="24" height="24" fill="white"></rect>
      </clipPath>
    </defs>
  </symbol>
  <symbol fill="none" xmlns="http://www.w3.org/2000/svg" viewBox="0 0 24 24" id="twitter 1">
    <path d="M22 5.92375C21.2563 6.25 20.4637 6.46625 19.6375 6.57125C20.4875 6.06375 21.1363 5.26625 21.4412 4.305C20.6488 4.7775 19.7738 5.11125 18.8412 5.2975C18.0887 4.49625 17.0162 4 15.8462 4C13.5763 4 11.7487 5.8425 11.7487 8.10125C11.7487 8.42625 11.7762 8.73875 11.8438 9.03625C8.435 8.87 5.41875 7.23625 3.3925 4.7475C3.03875 5.36125 2.83125 6.06375 2.83125 6.82C2.83125 8.24 3.5625 9.49875 4.6525 10.2275C3.99375 10.215 3.3475 10.0238 2.8 9.7225C2.8 9.735 2.8 9.75125 2.8 9.7675C2.8 11.76 4.22125 13.415 6.085 13.7962C5.75125 13.8875 5.3875 13.9312 5.01 13.9312C4.7475 13.9312 4.4825 13.9163 4.23375 13.8612C4.765 15.485 6.2725 16.6788 8.065 16.7175C6.67 17.8088 4.89875 18.4662 2.98125 18.4662C2.645 18.4662 2.3225 18.4513 2 18.41C3.81625 19.5813 5.96875 20.25 8.29 20.25C15.835 20.25 19.96 14 19.96 8.5825C19.96 8.40125 19.9538 8.22625 19.945 8.0525C20.7588 7.475 21.4425 6.75375 22 5.92375Z" fill="white"></path>
  </symbol>
  <symbol fill="none" xmlns="http://www.w3.org/2000/svg" viewBox="0 0 18 21" id="Vector">
    <path d="M13.1979 15.171L3.88863 9.35388M6.45579 5.14288L15.765 10.96M5.9761 16.4734L13.6776 3.84042M16.8347 9.20537C14.8399 7.95885 14.0564 6.98468 15.3399 4.87918L9.02295 0.931885L1.32147 13.5649L10.6307 19.382L16.8347 9.20537Z" stroke="#FD9222" stroke-width="1.8" stroke-linecap="round" stroke-linejoin="round"></path>
  </symbol>
  <symbol fill="none" xmlns="http://www.w3.org/2000/svg" viewBox="0 0 15 18" id="Vector-14">
    <path d="M0.588122 12.6747L7.66043 1.24L8.08036 0.797617L13.4851 4.40119L13.5221 6.57579L14.8412 8.72801L9.01388 17.9658L0.588122 12.6747Z" fill="#FCF1E0"></path>
  </symbol>
</svg>
